<svg id="Layer_2" data-name="Layer 2" xmlns="http://www.w3.org/2000/svg" viewBox="0 0 1280 162">
  <defs>
    <style>
      .cls-1 {
        fill: #3d395b;
      }

      .cls-2 {
        fill: #ddeaf5;
      }

      .cls-2, .cls-5, .cls-6, .cls-8 {
        isolation: isolate;
      }

      .cls-3 {
        fill: #fab600;
      }

      .cls-17, .cls-4, .cls-5 {
        fill: #fff;
      }

      .cls-5 {
        opacity: 0.4;
      }

      .cls-6 {
        fill: #ea612d;
      }

      .cls-6, .cls-8 {
        opacity: 0.44;
      }

      .cls-7 {
        fill: #453015;
      }

      .cls-8 {
        fill: #a33417;
      }

      .cls-9 {
        fill: #593717;
      }

      .cls-10 {
        fill: #c9731a;
      }

      .cls-11 {
        fill: #51722b;
      }

      .cls-12 {
        fill: #f2d800;
      }

      .cls-13, .cls-14 {
        fill: #3c4c22;
      }

      .cls-13 {
        opacity: 0.6;
      }

      .cls-14, .cls-15 {
        opacity: 0.61;
      }

      .cls-15 {
        fill: #ffdf00;
      }

      .cls-16 {
        fill: #13120d;
        opacity: 0.19;
      }

      .cls-17 {
        opacity: 0.21;
      }

      .cls-18 {
        fill: #12100b;
        opacity: 0.26;
      }

      .cls-19 {
        fill: #71a72e;
      }

      .cls-20 {
        fill: #941915;
      }

      .cls-21 {
        fill: #edd500;
        opacity: 0.46;
      }

      .cls-22 {
        fill: #445925;
        opacity: 0.35;
      }
    </style>
  </defs>
  <title>status_background</title>
  <path id="Path_5" data-name="Path 5" class="cls-1" d="M.12,33.1h1280v128H.12Z"/>
  <g>
    <path class="cls-2" d="M627.62,134.46a4.48,4.48,0,0,1-.61,2.9c-.87,1.31-2.5,3.59-2.5,3.59s-1.52,4.13,1.09,4.13h46.22s3.26-.54.76-4.45-3.26-5-3.26-5V71.89l-41.7-.24v62.81Z"/>
    <path class="cls-3" d="M630.21,72l37.18.23v57.8s.25,4.2-2.89,4.2H632.72s-2.89.26-2.89-4.73,0-57.49,0-57.49"/>
    <path class="cls-2" d="M628.57,80.55l-1.3,1.87H614s-9-.24-9,7.8v19.34s-.65,4.39,5,9.26,17.79,14.63,17.79,14.63l.82,1.62V122.8l-1.14,1.06L613.54,112.4s-1.3-.65-1.3-7.07V90.79s.08-1.46,2.19-1.46H627.1l1.47,1.46Z"/>
    <path class="cls-4" d="M667.53,72.37s4.28-4.79-1-7.65c0,0,1.12-6.94-6.23-7.25,0,0-3.26-6.83-9.49-1.32,0,0-5.71-2.45-8.16,3.26,0,0-5-1.22-6.84,3.17,0,0-10.84-.19-7.68,9.7Z"/>
    <path class="cls-5" d="M658.64,73.09h6v62.76l4,6.11s.58,1.88-1.88,1.88h-8.93l-.94-7.87,0-62.89Z"/>
    <path class="cls-6" d="M639.76,73.09h-6v62.76l-4,6.11s-.58,1.88,1.88,1.88h8.93l.94-7.87.05-62.89Z"/>
    <path class="cls-4" d="M626.88,83.16H614s-6-.19-7.69,5.49c0,0,1.47-3.37,7.58-3.37h13Z"/>
    <path class="cls-4" d="M612.82,112.76l14.35,11.46A24.9,24.9,0,0,1,612.82,112.76Z"/>
  </g>
  <g>
    <path class="cls-2" d="M705.59,134.46a4.44,4.44,0,0,1-.6,2.9c-.87,1.31-2.5,3.59-2.5,3.59s-1.53,4.13,1.08,4.13h46.22s3.27-.54.77-4.45-3.27-5-3.27-5V71.89l-41.7-.24v62.81Z"/>
    <path class="cls-7" d="M708.19,72l37.17.23v57.8s.25,4.2-2.89,4.2H710.7s-2.89.26-2.89-4.73,0-57.49,0-57.49"/>
    <path class="cls-2" d="M706.54,80.55l-1.3,1.87H692s-9-.24-9,7.8v19.34s-.65,4.39,5,9.26,17.79,14.63,17.79,14.63l.81,1.62V122.8l-1.14,1.06L691.51,112.4s-1.3-.65-1.3-7.07V90.79s.08-1.46,2.2-1.46h12.67l1.46,1.46Z"/>
    <path class="cls-4" d="M745.5,72.37s4.29-4.79-1-7.65c0,0,1.12-6.94-6.22-7.25,0,0-3.27-6.83-9.49-1.32,0,0-5.72-2.45-8.17,3.26,0,0-5-1.22-6.83,3.17,0,0-10.84-.19-7.68,9.7Z"/>
    <path class="cls-5" d="M736.62,73.09h6v62.76l4,6.11s.59,1.88-1.88,1.88h-8.93l-.94-7.87-.05-62.89Z"/>
    <path class="cls-8" d="M717.73,73.09h-6v62.76l-4,6.11s-.59,1.88,1.88,1.88h8.93l.94-7.87,0-62.89Z"/>
    <path class="cls-4" d="M704.85,83.16H692s-6-.19-7.7,5.49c0,0,1.48-3.37,7.59-3.37h13Z"/>
    <path class="cls-4" d="M690.8,112.76l14.35,11.46A24.88,24.88,0,0,1,690.8,112.76Z"/>
  </g>
  <g>
    <path class="cls-9" d="M144.4,11.55h18.07a14.93,14.93,0,0,1-.72,9.4s4.69,19.63,3.73,35.77A25.75,25.75,0,0,1,174,75.49v66.56a2.68,2.68,0,0,1-1.38,2.52c-1.09.45-19,3.38-38.32,0,0,0-1.79-.32-1.79-2.82V75.06s.66-12.11,9.11-18.22c0,0-.18-28.08,4-35.43A13.8,13.8,0,0,1,144.4,11.55Z"/>
    <path class="cls-10" d="M146.94,12.67l13.25-.06a9.28,9.28,0,0,1-1.11,8.74s5.68,21.57,4.87,36.77c0,0,7.17,5.59,7.17,16.73s.13,61.72.13,61.72.09,1.8-1.14,2.38c-.91.42-17.3,2.83-33.42-.35,0,0-1.48-.3-1.48-2.65,0-1.68,0-61.11,0-61.11s0-12.08,9.45-16.56c0,0-1-28.44,3.5-36.86C148.14,21.42,145,16.61,146.94,12.67Z"/>
    <path class="cls-11" d="M132.68,83.4s19.68-11.09,41.25,0v40.94s-17.82,9.84-41.25,0Z"/>
    <path class="cls-12" d="M134.71,85.14s17.75-10.13,37.19,0v37.39s-16.06,9-37.19,0Z"/>
    <path class="cls-11" d="M136.25,86.56s16.28-9.29,34.11,0v34.3s-14.73,8.25-34.11,0Z"/>
    <rect class="cls-12" x="144.01" y="97.3" width="18.59" height="8.12"/>
    <path class="cls-11" d="M143.67,27.81s9.74-6,19.51,0a157.86,157.86,0,0,1,2.12,15.7s-9.41,6.59-23.36,0A124.86,124.86,0,0,1,143.67,27.81Z"/>
    <path class="cls-12" d="M143.44,29s8.75-6,19.9,0l.17.93S153,23.93,143.28,30A5.56,5.56,0,0,1,143.44,29Z"/>
    <path class="cls-12" d="M142.08,41.7a26,26,0,0,0,23.11,0l-.09-.82s-11.82,5.94-23-.16A5,5,0,0,0,142.08,41.7Z"/>
    <path class="cls-13" d="M146,20.63a91.65,91.65,0,0,0,14.71,0S154.28,25.32,146,20.63Z"/>
    <path class="cls-14" d="M164.21,57.6s-12.1,2.22-21.32-.12"/>
    <path class="cls-15" d="M159.63,12.73s1.53,5.6-1.5,8.44c0,0,5.94,28.55,3.64,37.33,0,0,8.26,6.59,8.26,15.79v66.9s.15,1.37-.57,1.65a20.11,20.11,0,0,1-7.68.79s-.65.07-.65-.95-.36-67.6-.36-67.6S159.46,60.8,154.1,58c0,0,3.54-22.45.67-37,0,0,3.09-5.91.31-8.52Z"/>
    <path class="cls-16" d="M146.94,12.67s-.6,5.91,2.42,8.75c0,0-5.35,12.82-3.38,36.48,0,0-9.86,5.91-9.79,17.23.05,9.2-.44,65.63-.44,65.63s-.14,1.37.57,1.66.6,1.12,3.61.69c0,0,.65.06.65-1s-.09-66.52-.09-66.52-.62-10.52,9.94-17.42c0,0-2-22.66.9-37.22,0,0-2.25-5.78.15-8.46Z"/>
    <path class="cls-11" d="M160,8.41H146.79s-3.43-.12-3.43,4.07c0,0,.08,2.63,2.23,2.63l15.56,0s2.38-.08,2.28-3.35C163.34,8.78,160,8.41,160,8.41Z"/>
    <path class="cls-17" d="M156.13,8.94h3.7a3.77,3.77,0,0,1,.28,5.58h-3.93S158.19,11.52,156.13,8.94Z"/>
    <path class="cls-18" d="M149.92,9h-3.71a3.77,3.77,0,0,0-.28,5.58h3.94S147.85,11.59,149.92,9Z"/>
  </g>
  <g>
    <path class="cls-11" d="M83.22,11h18.07a14.93,14.93,0,0,1-.72,9.4S105.26,40,104.3,56.16a25.73,25.73,0,0,1,8.52,18.77v66.55a2.68,2.68,0,0,1-1.38,2.52c-1.09.45-19,3.39-38.32,0,0,0-1.79-.32-1.79-2.81V74.49S72,62.38,80.44,56.27c0,0-.18-28.08,4-35.43A13.78,13.78,0,0,1,83.22,11Z"/>
    <path class="cls-19" d="M85.76,12.1,99,12a9.28,9.28,0,0,1-1.11,8.74s5.68,21.57,4.87,36.77c0,0,7.17,5.59,7.17,16.73s.13,61.72.13,61.72.09,1.81-1.14,2.38c-.91.43-17.3,2.83-33.42-.35,0,0-1.48-.3-1.48-2.65,0-1.68,0-61.11,0-61.11s0-12.08,9.45-16.56c0,0-1-28.44,3.5-36.86C87,20.85,83.77,16,85.76,12.1Z"/>
    <path class="cls-20" d="M71.5,82.83s19.68-11.09,41.25,0v40.94s-17.82,9.84-41.25,0Z"/>
    <path class="cls-12" d="M73.53,84.57s17.75-10.13,37.19,0V122s-16.06,9-37.19,0Z"/>
    <path class="cls-20" d="M75.07,86s16.28-9.3,34.11,0v34.29s-14.73,8.25-34.11,0Z"/>
    <rect class="cls-12" x="82.83" y="96.74" width="18.59" height="8.12"/>
    <path class="cls-20" d="M82.49,27.24s9.74-6,19.51,0A157.86,157.86,0,0,1,104.12,43s-9.41,6.59-23.36,0A124.86,124.86,0,0,1,82.49,27.24Z"/>
    <path class="cls-12" d="M82.26,28.47s8.75-6,19.9,0l.17.93s-10.49-6.08-20.23,0A5.56,5.56,0,0,1,82.26,28.47Z"/>
    <path class="cls-12" d="M80.9,41.13a26,26,0,0,0,23.11,0l-.09-.81s-11.82,5.93-23-.17A5,5,0,0,0,80.9,41.13Z"/>
    <path class="cls-13" d="M84.8,20.06a91.65,91.65,0,0,0,14.71,0S93.1,24.75,84.8,20.06Z"/>
    <path class="cls-14" d="M103,57s-12.1,2.22-21.32-.12"/>
    <path class="cls-21" d="M98.45,12.16S100,17.76,97,20.6c0,0,5.94,28.56,3.64,37.34,0,0,8.26,6.58,8.26,15.78v66.9s.15,1.37-.57,1.66a20.37,20.37,0,0,1-7.68.78s-.65.07-.65-.95-.36-67.6-.36-67.6-1.31-14.28-6.67-17.07c0,0,3.54-22.45.67-37,0,0,3.09-5.91.31-8.52Z"/>
    <path class="cls-22" d="M85.76,12.1s-.6,5.91,2.42,8.75c0,0-5.35,12.82-3.38,36.48,0,0-9.86,5.91-9.79,17.23,0,9.2-.44,65.64-.44,65.64s-.14,1.36.57,1.65.6,1.12,3.61.69c0,0,.65.06.65-.95s-.09-66.51-.09-66.51-.62-10.53,9.94-17.43c0,0-2-22.66.9-37.22,0,0-2.25-5.78.15-8.45Z"/>
    <path class="cls-20" d="M98.8,7.84H85.61s-3.43-.12-3.43,4.07c0,0,.08,2.63,2.23,2.63l15.56,0s2.38-.08,2.28-3.35C102.16,8.21,98.8,7.84,98.8,7.84Z"/>
    <path class="cls-17" d="M95,8.37h3.7A3.77,3.77,0,0,1,98.93,14H95S97,11,95,8.37Z"/>
    <path class="cls-18" d="M87.9,8.44H84.2A3.76,3.76,0,0,0,83.92,14h3.93S85.84,11,87.9,8.44Z"/>
  </g>
</svg>
